<?xml version="1.0" encoding="UTF-8" standalone="no"?>
<svg
   enable-background="new -174.331 -123.304 1190.551 841.89"
   version="1.1"
   viewBox="-174.33 -123.3 594.31743 613.28674"
   xml:space="preserve"
   id="svg18"
   sodipodi:docname="REfirefox.svg"
   inkscape:version="1.2.2 (732a01da63, 2022-12-09)"
   width="594.31744"
   height="613.28674"
   inkscape:export-filename="REfirefox.png"
   inkscape:export-xdpi="40.072609"
   inkscape:export-ydpi="40.072609"
   xmlns:inkscape="http://www.inkscape.org/namespaces/inkscape"
   xmlns:sodipodi="http://sodipodi.sourceforge.net/DTD/sodipodi-0.dtd"
   xmlns="http://www.w3.org/2000/svg"
   xmlns:svg="http://www.w3.org/2000/svg"><defs
   id="defs22" /><sodipodi:namedview
   id="namedview20"
   pagecolor="#505050"
   bordercolor="#eeeeee"
   borderopacity="1"
   inkscape:showpageshadow="0"
   inkscape:pageopacity="0"
   inkscape:pagecheckerboard="true"
   inkscape:deskcolor="#505050"
   showgrid="false"
   inkscape:zoom="0.49709581"
   inkscape:cx="254.47811"
   inkscape:cy="414.40703"
   inkscape:window-width="1920"
   inkscape:window-height="1017"
   inkscape:window-x="-8"
   inkscape:window-y="-8"
   inkscape:window-maximized="1"
   inkscape:current-layer="svg18" />





<path
   d="m 390.14,85.454558 c -12.542,-30.158 -37.952,-62.74 -57.895,-73.022 14.212,27.507 24.068,57.043 29.209,87.561 v 0.262002 l 0.065,0.295 c 22.234,63.62501 19.025,133.40001 -8.972,194.74001 -33.073,70.959 -113.1,143.69 -238.39,140.15 -135.37,-3.831 -254.6,-104.3 -276.9,-235.87 -4.061,-20.761 0,-31.272 2.03,-48.136 -2.751,13.098 -4.322,26.426 -4.617,39.818 v 1.474 c 0.131,159.34 129.44,288.42 288.78,288.26 140.35,-0.131 260.23,-101.18 284.07,-239.5 0.491,-3.732 0.884,-7.4 1.31,-11.166 5.963,-49.053 -0.489,-98.892 -18.695,-144.870012 z"
   fill="none"
   stroke="#ff2c50"
   stroke-width="8"
   id="path2"
   style="stroke-width:20;stroke-linecap:round;stroke-linejoin:round;stroke-dasharray:none;stroke:#66bbff;stroke-opacity:1" />

<path
   d="m 249.92,119.34457 c 0.622,0.426 1.212,0.885 1.801,1.31 -7.236,-12.836 -16.274,-24.624012 -26.785,-34.939012 -89.69,-89.689 -23.512,-194.439988 -12.346,-199.779988 l 0.099,-0.163 c -72.466,42.436988 -97.058,120.989988 -99.316,160.289988 3.372,-0.229 6.713,-0.524 10.15,-0.524 52.326,0.097 100.59,28.292 126.4,73.807012 z"
   fill="none"
   stroke="#ffdb20"
   stroke-width="8"
   id="path4"
   style="stroke-width:20;stroke-linecap:round;stroke-linejoin:round;stroke-dasharray:none;stroke:#ffffff;stroke-opacity:1" />



<path
   d="m 123.69,137.25457 c -0.491,7.171 -25.836,31.927 -34.71,31.927 -82.027,0 -95.355,49.643 -95.355,49.643 3.635,41.783 32.746,76.198 67.947,94.405 1.604,0.818 3.242,1.571 4.879,2.324 2.816,1.245 5.633,2.424 8.482,3.472 12.083,4.289 24.723,6.713 37.526,7.236 143.78,6.746 171.65,-171.95 67.881,-223.82001 24.494,-3.177002 49.282,2.84901 69.552,16.89601 -25.771,-45.516012 -74.038,-73.710012 -126.4,-73.809012 -3.438,0 -6.778,0.295 -10.151,0.524 -28.947,1.997 -56.617,12.64 -79.407,30.617 4.388,3.732 9.364,8.71 19.811,18.992 19.612,19.288012 69.843,39.263012 69.942,41.588012 z"
   fill="none"
   stroke="#8b5cf7"
   stroke-width="8"
   id="path6"
   style="stroke-width:20;stroke-linecap:round;stroke-linejoin:round;stroke-dasharray:none;stroke:#9999ff;stroke-opacity:1" />

<path
   d="m 20.51,67.044558 c 2.324,1.473 4.257,2.783 5.959,3.962 -6.581,-23.021 -6.844,-47.351 -0.818,-70.53400003 C -0.971,13.374558 -24.614,31.646558 -43.802,54.142558 c 1.44,-0.032 43.29,-0.786 64.312,12.902 z"
   fill="none"
   stroke="#ff7f30"
   stroke-width="8"
   id="path8"
   style="stroke-width:20;stroke-linecap:round;stroke-linejoin:round;stroke-dasharray:none;stroke:#66bbff;stroke-opacity:1" />

<path
   d="m -162.71,199.56457 c 22.267,131.57 141.49,232 276.86,235.87 125.28,3.536 205.31,-69.191 238.39,-140.15 27.997,-61.332 31.206,-131.08 8.972,-194.74001 v -0.262 c 0,-0.23 -0.032,-0.327002 0,-0.262 l 0.065,0.491 c 10.25,66.83301 -23.74,131.57001 -76.886,175.35001 l -0.164,0.36 c -103.54,84.32 -202.63,50.887 -222.67,37.232 -1.408,-0.654 -2.783,-1.375 -4.191,-2.096 -60.351,-28.849 -85.302,-83.861 -79.965,-131.02 -29.274,0.426 -56.061,-16.405 -68.34,-42.995 32.222,-19.745 72.367,-21.35 106.06,-4.257 34.154,15.521 73.056,17.028 108.32,4.257 -0.099,-2.357 -50.33,-22.332 -69.911,-41.619012 -10.446,-10.314 -15.424,-15.26 -19.812,-18.992 -2.391,-2.03 -4.847,-3.896 -7.434,-5.633 -1.702,-1.179 -3.635,-2.423 -5.959,-3.962 -21.056,-13.688 -62.904,-12.935 -64.279,-12.901 h -0.131 c -11.429,-14.507 -10.643,-62.282 -9.988,-72.27 -3.372,1.375 -6.614,3.078 -9.627,5.108 -10.085,7.204 -19.516,15.292 -28.193,24.166 -9.922,9.987 -18.96,20.793 -27.081,32.287 v 0.032 -0.065 c -18.533,26.295 -31.697,55.995 -38.705,87.431012 -0.131,0.59 -10.38,45.386 -5.337,68.635 z"
   fill="none"
   stroke="#ff9f00"
   stroke-width="8"
   id="path10"
   style="stroke-width:20;stroke-linecap:round;stroke-linejoin:round;stroke-dasharray:none;stroke:#99ccff;stroke-opacity:1" />

<path
   d="m 224.93,85.714558 c 10.544,10.348 19.549,22.137012 26.786,34.973012 1.571,1.212 3.077,2.391 4.322,3.536 65.425,60.285 31.141,145.52 28.587,151.61 53.146,-43.781 87.102,-108.52 76.886,-175.35001 -32.647,-81.372002 -87.954,-114.150002 -133.14,-185.570002 -2.292,-3.602 -4.585,-7.237 -6.812,-11.034988 -1.277,-2.194 -2.292,-4.159 -3.176,-5.96 -1.867,-3.635 -3.308,-7.466 -4.29,-11.428 0,-0.394 -0.295,-0.688 -0.655,-0.754 -0.163,-0.032 -0.359,-0.032 -0.557,0 -0.032,0 -0.098,0.065 -0.131,0.099 -0.032,0 -0.131,0.098 -0.196,0.098 -11.133,5.337 -77.311,110.089988 12.379,199.779988 z"
   fill="none"
   stroke="#ffd32e"
   stroke-width="8"
   id="path12"
   style="stroke-width:20;stroke-linejoin:round;stroke-dasharray:none;stroke:#ffffff;stroke-opacity:1" />

<path
   d="m 256.01,124.21457 c -1.244,-1.145 -2.751,-2.357 -4.322,-3.536 -0.59,-0.426 -1.179,-0.884 -1.801,-1.31 -20.303,-14.048 -45.091,-20.073012 -69.552,-16.89701 103.77,51.90201 75.936,230.56001 -67.881,223.82001 -12.804,-0.524 -25.443,-2.98 -37.526,-7.237 -2.816,-1.048 -5.633,-2.227 -8.482,-3.471 -1.637,-0.753 -3.274,-1.474 -4.879,-2.325 l 0.196,0.131 c 20.04,13.688 119.1,47.121 222.67,-37.231 l 0.164,-0.36 c 2.588,-6.058 36.84,-91.328 -28.586,-151.58 z"
   fill="none"
   stroke="#ffb506"
   stroke-width="8"
   id="path14"
   style="stroke-width:20;stroke-linejoin:round;stroke-dasharray:none;stroke:#cceeff;stroke-opacity:1" />

<path
   d="m -6.38,218.82456 c 0,0 13.328,-49.643 95.355,-49.643 8.874,0 33.27,-24.102 33.729,-31.273 -35.267,12.77 -73.188,10.611 -107.34,-4.9112 -33.695,-17.094 -73.841,-15.489 -106.06,4.257 12.279,26.589 39.065,43.42 68.34,42.994 -5.338,47.187 19.582,102.17 79.965,131.02 1.342,0.654 2.619,1.343 3.995,1.965 -35.234,-18.207 -64.346,-52.622 -67.98,-94.405 z"
   fill="none"
   stroke="#ffc300"
   stroke-linejoin="bevel"
   stroke-miterlimit="3.5"
   stroke-width="8"
   id="path16"
   style="stroke-width:20;stroke-linejoin:round;stroke-dasharray:none;stroke:#cceeff;stroke-opacity:1" />


</svg>
