<?xml version="1.0" encoding="UTF-8" standalone="no"?>
<!-- Created with Inkscape (http://www.inkscape.org/) -->

<svg
   width="150.50085mm"
   height="46.74789mm"
   viewBox="0 0 150.50086 46.747891"
   version="1.1"
   id="svg5"
   inkscape:export-filename="bitmap.svg"
   inkscape:export-xdpi="96.235626"
   inkscape:export-ydpi="96.235626"
   xmlns:inkscape="http://www.inkscape.org/namespaces/inkscape"
   xmlns:sodipodi="http://sodipodi.sourceforge.net/DTD/sodipodi-0.dtd"
   xmlns="http://www.w3.org/2000/svg"
   xmlns:svg="http://www.w3.org/2000/svg">
  <sodipodi:namedview
     id="namedview7"
     pagecolor="#505050"
     bordercolor="#eeeeee"
     borderopacity="1"
     inkscape:showpageshadow="0"
     inkscape:pageopacity="0"
     inkscape:pagecheckerboard="0"
     inkscape:deskcolor="#505050"
     inkscape:document-units="mm"
     showgrid="false" />
  <defs
     id="defs2">
    <rect
       x="230.6731"
       y="178.36932"
       width="611.55194"
       height="355.39752"
       id="rect236" />
  </defs>
  <g
     inkscape:label="Layer 1"
     inkscape:groupmode="layer"
     id="layer1"
     transform="translate(-23.552813,-10.682329)">
    <g
       id="g3967"
       inkscape:label="FOX"
       style="font-size:112.884px;font-family:'JetBrainsMonoNL NFM';-inkscape-font-specification:'JetBrainsMonoNL NFM, Normal';white-space:pre;shape-inside:url(#rect236);fill:#ffffff;stroke-width:0.755906;stroke-linecap:round;stroke-linejoin:round;stroke-miterlimit:26.9"
       transform="matrix(0.26486281,0,0,0.26260504,-39.40935,-46.046786)">
      <path
         d="m 726.03334,373.03581 h 13.824 l 15.744,-51.648 14.4,47.232 c 0.96,2.88 2.88,4.416 5.952,4.416 h 9.216 l -21.696,-70.464 20.736,-63.936 h -8.448 c -3.456,0 -5.952,1.92 -7.104,5.376 l -13.056,39.168 -13.056,-39.168 c -1.152,-3.456 -3.648,-5.376 -7.104,-5.376 h -8.448 l 20.736,63.936 z"
         style="font-size:192px;font-family:Ailerons;-inkscape-font-specification:'Ailerons, Normal';white-space:pre;shape-inside:url(#rect236);fill:#ffffff;stroke-width:0.755906;stroke-linecap:round;stroke-linejoin:round;stroke-miterlimit:26.9"
         id="path3961"
         inkscape:label="X" />
      <path
         d="m 645.58549,256.49181 v 98.688 c 0,12.48 6.72,19.2 19.2,19.2 h 4.608 c 12.48,0 19.2,-6.72 19.2,-19.2 v -98.688 c 0,-12.48 -6.72,-19.2 -19.2,-19.2 h -4.608 c -12.48,0 -19.2,6.72 -19.2,19.2 z m 13.44,98.688 v -98.688 c 0,-4.992 2.688,-7.68 7.68,-7.68 h 0.768 c 4.992,0 7.68,2.688 7.68,7.68 v 98.688 c 0,4.992 -2.688,7.68 -7.68,7.68 h -0.768 c -4.992,0 -7.68,-2.688 -7.68,-7.68 z"
         style="font-size:192px;font-family:Ailerons;-inkscape-font-specification:'Ailerons, Normal'"
         id="path3959"
         inkscape:label="O" />
      <path
         d="m 567.82552,244.01181 v 129.024 h 13.44 v -64.512 h 11.904 c 3.072,0 5.184,-1.344 6.336,-4.224 l 3.072,-7.68 h -21.312 v -46.08 h 17.472 c 3.072,0 5.184,-1.344 6.336,-4.224 l 3.072,-7.68 h -34.944 c -3.456,0 -5.376,1.92 -5.376,5.376 z"
         style="font-size:192px;font-family:Ailerons;-inkscape-font-specification:'Ailerons, Normal';white-space:pre;shape-inside:url(#rect236);fill:#ffffff;stroke-width:0.755906;stroke-linecap:round;stroke-linejoin:round;stroke-miterlimit:26.9"
         id="path3957"
         inkscape:label="F" />
    </g>
    <g
       id="g3973"
       style="font-size:112.884px;font-family:'JetBrainsMonoNL NFM';-inkscape-font-specification:'JetBrainsMonoNL NFM, Normal';white-space:pre;shape-inside:url(#rect236);fill:#ffffff;stroke-width:0.755906;stroke-linecap:round;stroke-linejoin:round;stroke-miterlimit:26.9"
       transform="matrix(0.26486281,0,0,0.26260504,-39.40935,-46.399638)"
       inkscape:label="FIRE">
      <path
         d="m 486.99365,244.01181 v 129.024 h 33.024 c 3.072,0 5.184,-1.344 6.336,-4.224 l 3.072,-7.68 h -28.992 v -52.608 h 11.904 c 3.072,0 5.184,-1.344 6.336,-4.224 l 3.072,-7.68 h -21.312 v -46.08 h 17.472 c 3.072,0 5.184,-1.344 6.336,-4.224 l 3.072,-7.68 h -34.944 c -3.456,0 -5.376,1.92 -5.376,5.376 z"
         style="font-size:192px;font-family:Ailerons;-inkscape-font-specification:'Ailerons, Normal';white-space:pre;shape-inside:url(#rect236);fill:#ffffff;stroke-width:0.755906;stroke-linecap:round;stroke-linejoin:round;stroke-miterlimit:26.9"
         id="path3955"
         inkscape:label="E" />
      <path
         d="m 419.79374,238.63581 h -23.04 v 134.4 h 13.44 v -64.512 h 7.68 c 4.992,0 7.68,2.688 7.68,7.68 v 51.456 c 0,3.456 1.92,5.376 5.376,5.376 h 8.064 v -57.216 c 0,-5.568 -2.112,-9.984 -5.952,-13.248 3.84,-3.264 5.952,-7.68 5.952,-13.248 v -31.488 c 0,-12.48 -6.72,-19.2 -19.2,-19.2 z m -9.6,57.984 v -46.08 h 7.68 c 4.992,0 7.68,2.688 7.68,7.68 v 30.72 c 0,4.992 -2.688,7.68 -7.68,7.68 z"
         style="font-size:192px;font-family:Ailerons;-inkscape-font-specification:'Ailerons, Normal'"
         id="path7168"
         inkscape:label="R"
         sodipodi:nodetypes="sccccsssscscsssccssssc" />
      <path
         d="m 341.4578,238.63581 h -8.064 v 134.4 h 13.44 v -129.024 c 0,-3.456 -1.92,-5.376 -5.376,-5.376 z"
         style="font-size:192px;font-family:Ailerons;-inkscape-font-specification:'Ailerons, Normal';white-space:pre;shape-inside:url(#rect236);fill:#ffffff;stroke-width:0.755906;stroke-linecap:round;stroke-linejoin:round;stroke-miterlimit:26.9"
         id="path3951"
         inkscape:label="I" />
      <path
         d="m 256.59383,244.01181 v 129.024 h 13.44 v -64.512 h 11.904 c 3.072,0 5.184,-1.344 6.336,-4.224 l 3.072,-7.68 h -21.312 v -46.08 h 17.472 c 3.072,0 5.184,-1.344 6.336,-4.224 l 3.072,-7.68 h -34.944 c -3.456,0 -5.376,1.92 -5.376,5.376 z"
         style="font-size:192px;font-family:Ailerons;-inkscape-font-specification:'Ailerons, Normal';white-space:pre;shape-inside:url(#rect236);fill:#ffffff;stroke-width:0.755906;stroke-linecap:round;stroke-linejoin:round;stroke-miterlimit:26.9"
         id="path3949"
         inkscape:label="F" />
    </g>
    <path
       style="fill:none;fill-opacity:1;stroke:#ffffff;stroke-width:1.00531;stroke-linecap:square;stroke-linejoin:miter;stroke-miterlimit:26.9;stroke-dasharray:none;stroke-opacity:1"
       d="m 105.25909,11.264333 68.29135,-0.07877"
       id="path4186" />
    <path
       style="fill:none;fill-opacity:1;stroke:#ffffff;stroke-width:1.03166;stroke-linecap:butt;stroke-linejoin:miter;stroke-miterlimit:26.9;stroke-dasharray:none;stroke-opacity:1"
       d="M 106.28781,56.914387 H 23.552813"
       id="path5420" />
  </g>
</svg>
