<svg id="visual" viewBox="0 0 900 600" width="900" height="600" xmlns="http://www.w3.org/2000/svg" xmlns:xlink="http://www.w3.org/1999/xlink" version="1.1"><rect x="0" y="0" width="900" height="600" fill="#bac2de"></rect><path d="M0 233L7.5 231.7C15 230.3 30 227.7 45 228.5C60 229.3 75 233.7 90 233C105 232.3 120 226.7 135 222.8C150 219 165 217 180 215C195 213 210 211 225 209.3C240 207.7 255 206.3 270 206.7C285 207 300 209 315 208.7C330 208.3 345 205.7 360 210.2C375 214.7 390 226.3 405 232.3C420 238.3 435 238.7 450 234.5C465 230.3 480 221.7 495 215.5C510 209.3 525 205.7 540 205.7C555 205.7 570 209.3 585 211.8C600 214.3 615 215.7 630 219.7C645 223.7 660 230.3 675 228C690 225.7 705 214.3 720 213.8C735 213.3 750 223.7 765 228C780 232.3 795 230.7 810 230C825 229.3 840 229.7 855 228.3C870 227 885 224 892.5 222.5L900 221L900 0L892.5 0C885 0 870 0 855 0C840 0 825 0 810 0C795 0 780 0 765 0C750 0 735 0 720 0C705 0 690 0 675 0C660 0 645 0 630 0C615 0 600 0 585 0C570 0 555 0 540 0C525 0 510 0 495 0C480 0 465 0 450 0C435 0 420 0 405 0C390 0 375 0 360 0C345 0 330 0 315 0C300 0 285 0 270 0C255 0 240 0 225 0C210 0 195 0 180 0C165 0 150 0 135 0C120 0 105 0 90 0C75 0 60 0 45 0C30 0 15 0 7.5 0L0 0Z" fill="#45475a"></path><path d="M0 179L7.5 178.8C15 178.7 30 178.3 45 181.2C60 184 75 190 90 194C105 198 120 200 135 199.3C150 198.7 165 195.3 180 195.7C195 196 210 200 225 200.5C240 201 255 198 270 197C285 196 300 197 315 192.5C330 188 345 178 360 177C375 176 390 184 405 189.7C420 195.3 435 198.7 450 197C465 195.3 480 188.7 495 188.2C510 187.7 525 193.3 540 193.7C555 194 570 189 585 188.7C600 188.3 615 192.7 630 191.3C645 190 660 183 675 182.5C690 182 705 188 720 186.7C735 185.3 750 176.7 765 173.8C780 171 795 174 810 175.3C825 176.7 840 176.3 855 180.3C870 184.3 885 192.7 892.5 196.8L900 201L900 0L892.5 0C885 0 870 0 855 0C840 0 825 0 810 0C795 0 780 0 765 0C750 0 735 0 720 0C705 0 690 0 675 0C660 0 645 0 630 0C615 0 600 0 585 0C570 0 555 0 540 0C525 0 510 0 495 0C480 0 465 0 450 0C435 0 420 0 405 0C390 0 375 0 360 0C345 0 330 0 315 0C300 0 285 0 270 0C255 0 240 0 225 0C210 0 195 0 180 0C165 0 150 0 135 0C120 0 105 0 90 0C75 0 60 0 45 0C30 0 15 0 7.5 0L0 0Z" fill="#3d3e51"></path><path d="M0 134L7.5 136.3C15 138.7 30 143.3 45 146.3C60 149.3 75 150.7 90 148.3C105 146 120 140 135 138.7C150 137.3 165 140.7 180 142.7C195 144.7 210 145.3 225 143.7C240 142 255 138 270 139.2C285 140.3 300 146.7 315 147C330 147.3 345 141.7 360 143.5C375 145.3 390 154.7 405 154.5C420 154.3 435 144.7 450 144.5C465 144.3 480 153.7 495 154.3C510 155 525 147 540 147.2C555 147.3 570 155.7 585 157.7C600 159.7 615 155.3 630 156.2C645 157 660 163 675 161.3C690 159.7 705 150.3 720 150C735 149.7 750 158.3 765 158.8C780 159.3 795 151.7 810 151.2C825 150.7 840 157.3 855 158.7C870 160 885 156 892.5 154L900 152L900 0L892.5 0C885 0 870 0 855 0C840 0 825 0 810 0C795 0 780 0 765 0C750 0 735 0 720 0C705 0 690 0 675 0C660 0 645 0 630 0C615 0 600 0 585 0C570 0 555 0 540 0C525 0 510 0 495 0C480 0 465 0 450 0C435 0 420 0 405 0C390 0 375 0 360 0C345 0 330 0 315 0C300 0 285 0 270 0C255 0 240 0 225 0C210 0 195 0 180 0C165 0 150 0 135 0C120 0 105 0 90 0C75 0 60 0 45 0C30 0 15 0 7.5 0L0 0Z" fill="#353648"></path><path d="M0 131L7.5 125.8C15 120.7 30 110.3 45 110.2C60 110 75 120 90 125.2C105 130.3 120 130.7 135 126.5C150 122.3 165 113.7 180 113.5C195 113.3 210 121.7 225 122.2C240 122.7 255 115.3 270 113.5C285 111.7 300 115.3 315 117C330 118.7 345 118.3 360 115C375 111.7 390 105.3 405 103.5C420 101.7 435 104.3 450 109.3C465 114.3 480 121.7 495 123C510 124.3 525 119.7 540 119.2C555 118.7 570 122.3 585 120.3C600 118.3 615 110.7 630 111.3C645 112 660 121 675 122C690 123 705 116 720 114.7C735 113.3 750 117.7 765 120.8C780 124 795 126 810 123.8C825 121.7 840 115.3 855 113.2C870 111 885 113 892.5 114L900 115L900 0L892.5 0C885 0 870 0 855 0C840 0 825 0 810 0C795 0 780 0 765 0C750 0 735 0 720 0C705 0 690 0 675 0C660 0 645 0 630 0C615 0 600 0 585 0C570 0 555 0 540 0C525 0 510 0 495 0C480 0 465 0 450 0C435 0 420 0 405 0C390 0 375 0 360 0C345 0 330 0 315 0C300 0 285 0 270 0C255 0 240 0 225 0C210 0 195 0 180 0C165 0 150 0 135 0C120 0 105 0 90 0C75 0 60 0 45 0C30 0 15 0 7.5 0L0 0Z" fill="#2d2e3f"></path><path d="M0 69L7.5 70.2C15 71.3 30 73.7 45 73.7C60 73.7 75 71.3 90 74C105 76.7 120 84.3 135 88.2C150 92 165 92 180 91.5C195 91 210 90 225 88.3C240 86.7 255 84.3 270 82.5C285 80.7 300 79.3 315 80.5C330 81.7 345 85.3 360 84.2C375 83 390 77 405 73.2C420 69.3 435 67.7 450 66.5C465 65.3 480 64.7 495 64.3C510 64 525 64 540 66C555 68 570 72 585 76C600 80 615 84 630 86.2C645 88.3 660 88.7 675 86.5C690 84.3 705 79.7 720 78.7C735 77.7 750 80.3 765 79.7C780 79 795 75 810 72.3C825 69.7 840 68.3 855 70.7C870 73 885 79 892.5 82L900 85L900 0L892.5 0C885 0 870 0 855 0C840 0 825 0 810 0C795 0 780 0 765 0C750 0 735 0 720 0C705 0 690 0 675 0C660 0 645 0 630 0C615 0 600 0 585 0C570 0 555 0 540 0C525 0 510 0 495 0C480 0 465 0 450 0C435 0 420 0 405 0C390 0 375 0 360 0C345 0 330 0 315 0C300 0 285 0 270 0C255 0 240 0 225 0C210 0 195 0 180 0C165 0 150 0 135 0C120 0 105 0 90 0C75 0 60 0 45 0C30 0 15 0 7.5 0L0 0Z" fill="#252636"></path><path d="M0 41L7.5 42.3C15 43.7 30 46.3 45 47.2C60 48 75 47 90 44.5C105 42 120 38 135 38.2C150 38.3 165 42.7 180 45C195 47.3 210 47.7 225 47.3C240 47 255 46 270 46.7C285 47.3 300 49.7 315 49C330 48.3 345 44.7 360 45C375 45.3 390 49.7 405 51.3C420 53 435 52 450 48.3C465 44.7 480 38.3 495 35C510 31.7 525 31.3 540 31.2C555 31 570 31 585 31.5C600 32 615 33 630 35.2C645 37.3 660 40.7 675 41.2C690 41.7 705 39.3 720 38.7C735 38 750 39 765 41C780 43 795 46 810 46.8C825 47.7 840 46.3 855 45.5C870 44.7 885 44.3 892.5 44.2L900 44L900 0L892.5 0C885 0 870 0 855 0C840 0 825 0 810 0C795 0 780 0 765 0C750 0 735 0 720 0C705 0 690 0 675 0C660 0 645 0 630 0C615 0 600 0 585 0C570 0 555 0 540 0C525 0 510 0 495 0C480 0 465 0 450 0C435 0 420 0 405 0C390 0 375 0 360 0C345 0 330 0 315 0C300 0 285 0 270 0C255 0 240 0 225 0C210 0 195 0 180 0C165 0 150 0 135 0C120 0 105 0 90 0C75 0 60 0 45 0C30 0 15 0 7.5 0L0 0Z" fill="#1e1e2e"></path></svg>